<?xml version="1.0" standalone="no"?>
<!DOCTYPE svg PUBLIC "-//W3C//DTD SVG 20010904//EN"
 "http://www.w3.org/TR/2001/REC-SVG-20010904/DTD/svg10.dtd">
<svg version="1.0" xmlns="http://www.w3.org/2000/svg"
 width="700.000000pt" height="700.000000pt" viewBox="0 0 700.000000 700.000000"
 preserveAspectRatio="xMidYMid meet">
<metadata>
Created by potrace 1.14, written by Peter Selinger 2001-2017
</metadata>
<g transform="translate(0.000000,700.000000) scale(0.100000,-0.100000)"
fill="#000000" stroke="none">
<path d="M3395 6343 c-27 -13 -369 -184 -760 -381 -833 -419 -767 -372 -773
-548 -4 -97 -2 -108 23 -159 20 -42 37 -61 73 -83 l47 -27 1480 -3 c1631 -3
1526 -7 1593 59 50 49 65 103 60 216 -4 107 -22 153 -76 192 -15 10 -358 184
-762 387 -706 354 -737 368 -795 370 -45 1 -72 -4 -110 -23z"/>
<path d="M533 5530 c-54 -24 -75 -44 -102 -97 l-21 -42 0 -1765 0 -1766 3090
0 3090 0 0 1764 0 1764 -28 53 c-22 43 -38 59 -81 81 l-53 28 -443 0 -442 0 5
-127 c5 -153 -11 -240 -62 -346 -91 -188 -275 -318 -486 -342 -30 -4 -57 -8
-60 -10 -4 -3 -5 -1603 -1 -1627 0 -5 55 -8 122 -8 161 0 216 -25 263 -117 49
-97 2 -229 -98 -274 -40 -18 -101 -19 -1716 -19 -1187 0 -1687 3 -1715 11 -57
16 -120 84 -133 144 -12 55 -7 97 18 145 44 85 95 107 255 109 66 1 122 4 125
7 3 3 5 371 5 817 l0 812 -80 12 c-261 38 -467 230 -521 484 -12 53 -15 109
-12 202 l5 127 -441 0 c-413 0 -444 -2 -483 -20z"/>
<path d="M2474 3910 l1 -820 407 0 c225 0 409 3 409 8 1 4 2 373 3 820 l1 812
-410 0 -411 0 0 -820z"/>
<path d="M3705 3913 l0 -818 410 -3 411 -2 -1 820 0 820 -410 0 -410 0 0 -817z"/>
<path d="M124 1431 c-51 -23 -81 -54 -106 -109 -16 -35 -19 -57 -14 -120 17
-250 181 -460 425 -544 l66 -23 3000 0 3000 0 70 22 c242 77 410 288 431 543
6 72 5 84 -19 132 -28 56 -70 92 -128 108 -22 7 -1228 10 -3359 10 -3221 0
-3326 -1 -3366 -19z"/>
</g>
</svg>
